<?xml version="1.0" encoding="iso-8859-1"?>
<!-- Generator: Adobe Illustrator 19.0.0, SVG Export Plug-In . SVG Version: 6.00 Build 0)  -->
<svg xmlns="http://www.w3.org/2000/svg" xmlns:xlink="http://www.w3.org/1999/xlink" version="1.1" id="Capa_1" x="0px" y="0px" viewBox="0 0 512 512" style="enable-background:new 0 0 512 512;" xml:space="preserve">
<g>
	<g>
		<path d="M296.053,271.883c-3.164-11.075-13.387-20.969-29.574-28.389c-16.102-7.38-36.85-11.765-59.063-12.572v-11.359h-14.949    v11.359c-22.213,0.808-42.96,5.192-59.063,12.572c-16.188,7.42-26.41,17.314-29.574,28.389H84.088v14.949H415.38    c-44.821,10.608-84.538,38.086-111.254,77.63c-20.914,30.956-55.67,49.436-92.973,49.436    c-61.822,0-112.117-50.295-112.117-112.117v-7.474h-54.19C20.118,294.306,0,314.424,0,339.153C0,363.881,20.118,384,44.847,384    h29.898v-44.847H39.241v14.949h20.555v14.949H44.847c-16.486,0-29.898-13.412-29.898-29.898c0-16.486,13.412-29.898,29.898-29.898    h39.458c3.739,64.123,55.25,115.626,119.374,119.365v15.175h-18.686v7.474c0,12.365-10.059,22.423-22.423,22.423h-29.898v14.949    h156.964v-14.949h-29.898c-12.365,0-22.423-10.059-22.423-22.423v-7.474h-18.686v-15.173c39.409-2.31,75.592-22.793,97.886-55.792    c28.673-42.443,73.557-69.778,123.141-74.998l40.578-4.271v-21.678H296.053z M120.099,271.883    c8.474-13.515,38.918-26.161,79.842-26.161s71.368,12.645,79.842,26.161H120.099z M223.116,458.744    c1.124,5.519,3.47,10.603,6.741,14.949H192.45c3.27-4.347,5.616-9.43,6.741-14.949H223.116z" fill="#f3b556"/>
	</g>
</g>
<g>
	<g>
		<rect x="128.929" y="301.779" width="82.219" height="14.949" fill="#f3b556"/>
	</g>
</g>
<g>
	<g>
		<rect x="226.097" y="301.779" width="29.898" height="14.949" fill="#f3b556"/>
	</g>
</g>
<g>
	<g>
		<rect x="270.944" y="301.779" width="14.949" height="14.949" fill="#f3b556"/>
	</g>
</g>
<g>
	<g>
		<path d="M489.577,195.271H390.54c-4.122,0-7.474-3.353-7.474-7.474c0-4.122,3.353-7.474,7.474-7.474h14.949    c12.365,0,22.423-10.059,22.423-22.423s-10.059-22.423-22.423-22.423h-108.38c-4.122,0-7.474-3.353-7.474-7.474    c0-4.122,3.353-7.474,7.474-7.474h26.161c12.365,0,22.423-10.059,22.423-22.423c0-4.122,3.353-7.474,7.474-7.474h52.321    c12.365,0,22.423-10.059,22.423-22.423s-10.059-22.423-22.423-22.423H231.708c-2.061,0-3.737-1.676-3.737-3.737    c0-10.304-8.382-18.686-18.686-18.686h-35.504v14.949h35.504c2.061,0,3.737,1.676,3.737,3.737    c0,10.304,8.382,18.686,18.686,18.686h173.781c4.122,0,7.474,3.353,7.474,7.474c0,4.122-3.353,7.474-7.474,7.474h-52.321    c-12.365,0-22.423,10.059-22.423,22.423c0,4.122-3.353,7.474-7.474,7.474h-26.161c-12.365,0-22.423,10.059-22.423,22.423    s10.059,22.423,22.423,22.423h108.38c4.122,0,7.474,3.353,7.474,7.474c0,4.122-3.353,7.474-7.474,7.474H390.54    c-12.365,0-22.423,10.059-22.423,22.423c0,12.365,10.059,22.423,22.423,22.423h99.036c4.122,0,7.474,3.353,7.474,7.474    c0,4.122-3.353,7.474-7.474,7.474c-17.516,0-31.766,14.25-31.766,31.766v3.737h14.949v-3.737c0-9.273,7.544-16.818,16.818-16.818    c12.365,0,22.423-10.059,22.423-22.423S501.941,195.271,489.577,195.271z" fill="#f3b556"/>
	</g>
</g>
<g>
	<g>
		<rect x="143.878" y="23.358" width="14.949" height="14.949" fill="#f3b556"/>
	</g>
</g>
<g>
	<g>
		<rect x="113.98" y="23.358" width="14.949" height="14.949" fill="#f3b556"/>
	</g>
</g>
<g>
	<g>
		<rect x="84.083" y="23.358" width="14.949" height="14.949" fill="#f3b556"/>
	</g>
</g>
<g>
</g>
<g>
</g>
<g>
</g>
<g>
</g>
<g>
</g>
<g>
</g>
<g>
</g>
<g>
</g>
<g>
</g>
<g>
</g>
<g>
</g>
<g>
</g>
<g>
</g>
<g>
</g>
<g>
</g>
</svg>
